<svg width="44" height="44" viewBox="0 0 44 44" fill="none" xmlns="http://www.w3.org/2000/svg">
<path fill-rule="evenodd" clip-rule="evenodd" d="M18.5383 11.702C19.8173 11.2031 21.1833 10.9658 22.5556 11.004C25.1964 11.1004 27.7004 12.2025 29.5554 14.0845C31.4104 15.9666 32.476 18.4864 32.5341 21.1283C32.5669 23.4868 31.6984 25.3309 30.3897 27.3742L30.3481 27.4307L24.5067 34.9198C24.2405 35.2566 23.9015 35.5287 23.5152 35.7157C23.1289 35.9028 22.7052 36 22.276 36C21.8468 36 21.4231 35.9028 21.0368 35.7157C20.6504 35.5287 20.3115 35.2566 20.0453 34.9198L14.1652 27.3831C12.7287 25.2 12 23.1418 12 21.271C11.9999 19.8982 12.275 18.5394 12.809 17.2747C13.3431 16.01 14.1253 14.8653 15.1093 13.9081C16.0934 12.9509 17.2594 12.2008 18.5383 11.702ZM19.6546 17.3612C20.4279 16.8446 21.337 16.5688 22.2671 16.5688C23.5137 16.5703 24.7088 17.0663 25.5903 17.9478C26.4718 18.8293 26.9678 20.0244 26.9693 21.271C26.9693 22.2011 26.6935 23.1102 26.1769 23.8835C25.6602 24.6568 24.9258 25.2595 24.0665 25.6154C23.2073 25.9713 22.2618 26.0644 21.3497 25.883C20.4375 25.7015 19.5997 25.2537 18.9421 24.596C18.2844 23.9384 17.8366 23.1006 17.6551 22.1884C17.4737 21.2763 17.5668 20.3308 17.9227 19.4716C18.2786 18.6123 18.8813 17.8779 19.6546 17.3612ZM24.5274 22.7813C24.8261 22.3343 24.9855 21.8087 24.9855 21.271C24.9847 20.5503 24.6981 19.8593 24.1884 19.3497C23.6788 18.84 22.9878 18.5534 22.2671 18.5526C21.7294 18.5526 21.2038 18.712 20.7568 19.0107C20.3097 19.3094 19.9613 19.734 19.7555 20.2307C19.5498 20.7275 19.4959 21.2741 19.6008 21.8014C19.7057 22.3287 19.9646 22.8131 20.3448 23.1933C20.725 23.5735 21.2094 23.8324 21.7367 23.9373C22.264 24.0422 22.8106 23.9883 23.3074 23.7826C23.8041 23.5768 24.2287 23.2284 24.5274 22.7813Z" fill="white" fill-opacity="0.23" style="mix-blend-mode:lighten"/>
<path fill-rule="evenodd" clip-rule="evenodd" d="M18.5383 11.702C19.8173 11.2031 21.1833 10.9658 22.5556 11.004C25.1964 11.1004 27.7004 12.2025 29.5554 14.0845C31.4104 15.9666 32.476 18.4864 32.5341 21.1283C32.5669 23.4868 31.6984 25.3309 30.3897 27.3742L30.3481 27.4307L24.5067 34.9198C24.2405 35.2566 23.9015 35.5287 23.5152 35.7157C23.1289 35.9028 22.7052 36 22.276 36C21.8468 36 21.4231 35.9028 21.0368 35.7157C20.6504 35.5287 20.3115 35.2566 20.0453 34.9198L14.1652 27.3831C12.7287 25.2 12 23.1418 12 21.271C11.9999 19.8982 12.275 18.5394 12.809 17.2747C13.3431 16.01 14.1253 14.8653 15.1093 13.9081C16.0934 12.9509 17.2594 12.2008 18.5383 11.702ZM19.6546 17.3612C20.4279 16.8446 21.337 16.5688 22.2671 16.5688C23.5137 16.5703 24.7088 17.0663 25.5903 17.9478C26.4718 18.8293 26.9678 20.0244 26.9693 21.271C26.9693 22.2011 26.6935 23.1102 26.1769 23.8835C25.6602 24.6568 24.9258 25.2595 24.0665 25.6154C23.2073 25.9713 22.2618 26.0644 21.3497 25.883C20.4375 25.7015 19.5997 25.2537 18.9421 24.596C18.2844 23.9384 17.8366 23.1006 17.6551 22.1884C17.4737 21.2763 17.5668 20.3308 17.9227 19.4716C18.2786 18.6123 18.8813 17.8779 19.6546 17.3612ZM24.5274 22.7813C24.8261 22.3343 24.9855 21.8087 24.9855 21.271C24.9847 20.5503 24.6981 19.8593 24.1884 19.3497C23.6788 18.84 22.9878 18.5534 22.2671 18.5526C21.7294 18.5526 21.2038 18.712 20.7568 19.0107C20.3097 19.3094 19.9613 19.734 19.7555 20.2307C19.5498 20.7275 19.4959 21.2741 19.6008 21.8014C19.7057 22.3287 19.9646 22.8131 20.3448 23.1933C20.725 23.5735 21.2094 23.8324 21.7367 23.9373C22.264 24.0422 22.8106 23.9883 23.3074 23.7826C23.8041 23.5768 24.2287 23.2284 24.5274 22.7813Z" fill="#545454" style="mix-blend-mode:color-dodge"/>
</svg>
