<svg width="44" height="44" viewBox="0 0 44 44" fill="none" xmlns="http://www.w3.org/2000/svg">
<path d="M22 34C15.3726 34 10 28.6274 10 22C10 15.3726 15.3726 10 22 10C28.6274 10 34 15.3726 34 22C34 28.6274 28.6274 34 22 34ZM24.5895 18.4471C24.6064 18.2541 24.5574 18.061 24.4504 17.8994C24.3434 17.7378 24.1848 17.6172 24.0005 17.5573C23.8162 17.4974 23.617 17.5018 23.4355 17.5696C23.2539 17.6375 23.1007 17.7649 23.0009 17.931L20.3488 22.3458C20.2691 22.4785 20.2047 22.6198 20.1569 22.767C19.8077 23.8415 20.3959 24.9955 21.4703 25.3446C21.6175 25.3925 21.7696 25.4234 21.9239 25.4369C23.0494 25.5355 24.0416 24.703 24.1402 23.5776L24.5895 18.4473V18.4471ZM22 11.7143C18.3986 11.7143 15.2294 13.5652 13.392 16.3677L14.8267 17.3064C16.3579 14.971 18.9989 13.4286 22 13.4286C25.0424 13.4286 27.7147 15.0138 29.2359 17.4033L30.6831 16.484C28.8577 13.6164 25.651 11.7143 22 11.7143Z" fill="white"/>
</svg>
