<svg width="44" height="44" viewBox="0 0 44 44" fill="none" xmlns="http://www.w3.org/2000/svg">
<path d="M26.4066 30.3516H13.8791C13.4396 30.3516 13.0549 30.7363 13.0549 31.1758C13.0549 31.6154 13.4396 32 13.8791 32H26.4615C26.9011 32 27.2857 31.6154 27.2857 31.1758C27.2857 30.7363 26.9011 30.3516 26.4066 30.3516ZM15.1429 29.033L18.6044 28.8681C19.2637 28.9231 19.8681 28.6484 20.3077 28.2088L26.9011 21.6154L20.5275 15.2418L13.9341 21.8352C13.4945 22.2747 13.2747 22.8791 13.2747 23.4835L13 26.7253V26.8352C13 27.4396 13.2747 27.989 13.6593 28.3736C14.044 28.7582 14.5385 28.978 15.1429 29.033ZM29.4835 15.7912L26.3516 12.6593C25.4725 11.7802 23.989 11.7802 23.1099 12.6593L21.6813 14.0879L28.0549 20.4615L29.4835 19.033C30.3626 18.0989 30.3626 16.6703 29.4835 15.7912Z" fill="white"/>
</svg>
