<svg width="44" height="44" viewBox="0 0 44 44" fill="none" xmlns="http://www.w3.org/2000/svg">
<path fill-rule="evenodd" clip-rule="evenodd" d="M13.8857 12.2857C13.6667 12.2857 13.4606 12.3291 13.2736 12.4067L12.398 10.2953C12.8577 10.1047 13.361 10 13.8857 10H14.8571V12.2857H13.8857ZM18.7429 12.2857H16.8V10H18.7429V12.2857ZM22.6286 12.2857H20.6857V10H22.6286V12.2857ZM26.5143 12.2857H24.5714V10H26.5143V12.2857ZM29.4286 12.2857H28.4571V10H29.4286C29.9533 10 30.4565 10.1047 30.9163 10.2953L30.0407 12.4067C29.8537 12.3291 29.6476 12.2857 29.4286 12.2857ZM31.0286 13.8857C31.0286 13.6667 30.9852 13.4606 30.9076 13.2736L33.019 12.398C33.2096 12.8577 33.3143 13.361 33.3143 13.8857V14.8571H31.0286V13.8857ZM12.4067 13.2736C12.3291 13.4606 12.2857 13.6667 12.2857 13.8857V14.8571H10V13.8857C10 13.361 10.1047 12.8577 10.2953 12.398L12.4067 13.2736ZM31.0286 18.7429V16.8H33.3143V18.7429H31.0286ZM12.2857 16.8V18.7429H10V16.8H12.2857ZM12.2857 20.6857V22.6286H10V20.6857H12.2857ZM31.0286 21.6571V20.6857H33.3143V21.6571H31.0286ZM12.2857 24.5714V26.5143H10V24.5714H12.2857ZM12.2857 28.4571V29.4286C12.2857 29.6476 12.3291 29.8537 12.4067 30.0407L10.2953 30.9163C10.1047 30.4565 10 29.9533 10 29.4286V28.4571H12.2857ZM13.2736 30.9076C13.4606 30.9852 13.6667 31.0286 13.8857 31.0286H14.8571V33.3143H13.8857C13.361 33.3143 12.8577 33.2096 12.398 33.019L13.2736 30.9076ZM16.8 31.0286H18.7429V33.3143H16.8V31.0286ZM20.6857 31.0286H21.6571V33.3143H20.6857V31.0286Z" fill="white" fill-opacity="0.23" style="mix-blend-mode:lighten"/>
<path fill-rule="evenodd" clip-rule="evenodd" d="M13.8857 12.2857C13.6667 12.2857 13.4606 12.3291 13.2736 12.4067L12.398 10.2953C12.8577 10.1047 13.361 10 13.8857 10H14.8571V12.2857H13.8857ZM18.7429 12.2857H16.8V10H18.7429V12.2857ZM22.6286 12.2857H20.6857V10H22.6286V12.2857ZM26.5143 12.2857H24.5714V10H26.5143V12.2857ZM29.4286 12.2857H28.4571V10H29.4286C29.9533 10 30.4565 10.1047 30.9163 10.2953L30.0407 12.4067C29.8537 12.3291 29.6476 12.2857 29.4286 12.2857ZM31.0286 13.8857C31.0286 13.6667 30.9852 13.4606 30.9076 13.2736L33.019 12.398C33.2096 12.8577 33.3143 13.361 33.3143 13.8857V14.8571H31.0286V13.8857ZM12.4067 13.2736C12.3291 13.4606 12.2857 13.6667 12.2857 13.8857V14.8571H10V13.8857C10 13.361 10.1047 12.8577 10.2953 12.398L12.4067 13.2736ZM31.0286 18.7429V16.8H33.3143V18.7429H31.0286ZM12.2857 16.8V18.7429H10V16.8H12.2857ZM12.2857 20.6857V22.6286H10V20.6857H12.2857ZM31.0286 21.6571V20.6857H33.3143V21.6571H31.0286ZM12.2857 24.5714V26.5143H10V24.5714H12.2857ZM12.2857 28.4571V29.4286C12.2857 29.6476 12.3291 29.8537 12.4067 30.0407L10.2953 30.9163C10.1047 30.4565 10 29.9533 10 29.4286V28.4571H12.2857ZM13.2736 30.9076C13.4606 30.9852 13.6667 31.0286 13.8857 31.0286H14.8571V33.3143H13.8857C13.361 33.3143 12.8577 33.2096 12.398 33.019L13.2736 30.9076ZM16.8 31.0286H18.7429V33.3143H16.8V31.0286ZM20.6857 31.0286H21.6571V33.3143H20.6857V31.0286Z" fill="#545454" style="mix-blend-mode:color-dodge"/>
<path fill-rule="evenodd" clip-rule="evenodd" d="M27.6 33.0857C27.6 33.5907 28.0093 34 28.5143 34C29.0192 34 29.4286 33.5907 29.4286 33.0857V29.4286L33.0857 29.4286C33.5907 29.4286 34 29.0192 34 28.5143C34 28.0093 33.5907 27.6 33.0857 27.6L29.4286 27.6V23.9429C29.4286 23.4379 29.0192 23.0286 28.5143 23.0286C28.0093 23.0286 27.6 23.4379 27.6 23.9429V27.6L23.9429 27.6C23.4379 27.6 23.0286 28.0093 23.0286 28.5143C23.0286 29.0192 23.4379 29.4286 23.9429 29.4286L27.6 29.4286V33.0857Z" fill="white" fill-opacity="0.23" style="mix-blend-mode:lighten"/>
<path fill-rule="evenodd" clip-rule="evenodd" d="M27.6 33.0857C27.6 33.5907 28.0093 34 28.5143 34C29.0192 34 29.4286 33.5907 29.4286 33.0857V29.4286L33.0857 29.4286C33.5907 29.4286 34 29.0192 34 28.5143C34 28.0093 33.5907 27.6 33.0857 27.6L29.4286 27.6V23.9429C29.4286 23.4379 29.0192 23.0286 28.5143 23.0286C28.0093 23.0286 27.6 23.4379 27.6 23.9429V27.6L23.9429 27.6C23.4379 27.6 23.0286 28.0093 23.0286 28.5143C23.0286 29.0192 23.4379 29.4286 23.9429 29.4286L27.6 29.4286V33.0857Z" fill="#545454" style="mix-blend-mode:color-dodge"/>
</svg>
