<svg width="44" height="44" viewBox="0 0 44 44" fill="none" xmlns="http://www.w3.org/2000/svg">
<path d="M29.9293 16.6697C29.6908 16.9169 29.365 17.0609 29.0217 17.0709C28.6783 17.0809 28.3447 16.9561 28.0922 16.7232C27.8395 16.49 27.6881 16.1672 27.6705 15.8239C27.6529 15.4805 27.7704 15.1439 27.9979 14.8861C28.4719 14.3511 29.2847 14.2899 29.8325 14.7511C30.3803 15.2581 30.4236 16.1117 29.9293 16.6697ZM33.1065 13.844L27.7253 9.33928C27.5811 9.21703 27.414 9.12458 27.2339 9.06728C27.0537 9.00998 26.864 8.98896 26.6756 9.00545C26.4874 9.02194 26.3044 9.07544 26.1369 9.16289C25.9694 9.25033 25.8209 9.37 25.6998 9.51501L20.3081 15.946L21.7554 17.1615L23.7836 18.8813C23.8503 18.9367 23.9052 19.0049 23.945 19.082C23.9849 19.159 24.0088 19.2433 24.0154 19.3298C24.0282 19.503 23.9746 19.6789 23.86 19.8113C23.7484 19.9465 23.5883 20.0326 23.414 20.0512C23.2397 20.0698 23.065 20.0194 22.9274 19.9107L20.856 18.2469L19.3986 17.0316L17.5896 19.2227L18.7514 20.1985L20.0891 21.2943C20.2245 21.4093 20.3087 21.5732 20.3235 21.7502C20.3312 21.8378 20.3211 21.926 20.294 22.0096C20.2669 22.0932 20.2233 22.1704 20.1657 22.2368C20.1107 22.3045 20.0427 22.3604 19.9656 22.4011C19.8885 22.4418 19.804 22.4666 19.7172 22.4739C19.6302 22.4812 19.5426 22.4708 19.4598 22.4432C19.377 22.4156 19.3007 22.3715 19.2355 22.3134L17.8979 21.2176L16.736 20.2546L14.927 22.4457L16.3844 23.6611L18.3895 25.3479C18.6648 25.5899 18.7005 26.0078 18.4661 26.2906C18.3545 26.4258 18.1944 26.5119 18.0201 26.5305C17.8457 26.5491 17.6711 26.4987 17.5335 26.39L15.429 24.7134L13.9817 23.4981L10.4044 27.7685C10.1643 28.0695 10.0534 28.4535 10.0961 28.8361C10.1395 29.2182 10.3328 29.5673 10.6336 29.8069L16.3743 34.6607C16.5195 34.783 16.6874 34.8755 16.8684 34.9328C17.0494 34.9901 17.24 35.011 17.4291 34.9945C17.8114 34.9614 18.1651 34.7782 18.4126 34.485L33.3588 16.6365C33.6956 16.2322 33.8587 15.711 33.8124 15.1868C33.7634 14.6637 33.5098 14.181 33.1067 13.844H33.1065Z" fill="white" fill-opacity="0.23" style="mix-blend-mode:lighten"/>
<path d="M29.9293 16.6697C29.6908 16.9169 29.365 17.0609 29.0217 17.0709C28.6783 17.0809 28.3447 16.9561 28.0922 16.7232C27.8395 16.49 27.6881 16.1672 27.6705 15.8239C27.6529 15.4805 27.7704 15.1439 27.9979 14.8861C28.4719 14.3511 29.2847 14.2899 29.8325 14.7511C30.3803 15.2581 30.4236 16.1117 29.9293 16.6697ZM33.1065 13.844L27.7253 9.33928C27.5811 9.21703 27.414 9.12458 27.2339 9.06728C27.0537 9.00998 26.864 8.98896 26.6756 9.00545C26.4874 9.02194 26.3044 9.07544 26.1369 9.16289C25.9694 9.25033 25.8209 9.37 25.6998 9.51501L20.3081 15.946L21.7554 17.1615L23.7836 18.8813C23.8503 18.9367 23.9052 19.0049 23.945 19.082C23.9849 19.159 24.0088 19.2433 24.0154 19.3298C24.0282 19.503 23.9746 19.6789 23.86 19.8113C23.7484 19.9465 23.5883 20.0326 23.414 20.0512C23.2397 20.0698 23.065 20.0194 22.9274 19.9107L20.856 18.2469L19.3986 17.0316L17.5896 19.2227L18.7514 20.1985L20.0891 21.2943C20.2245 21.4093 20.3087 21.5732 20.3235 21.7502C20.3312 21.8378 20.3211 21.926 20.294 22.0096C20.2669 22.0932 20.2233 22.1704 20.1657 22.2368C20.1107 22.3045 20.0427 22.3604 19.9656 22.4011C19.8885 22.4418 19.804 22.4666 19.7172 22.4739C19.6302 22.4812 19.5426 22.4708 19.4598 22.4432C19.377 22.4156 19.3007 22.3715 19.2355 22.3134L17.8979 21.2176L16.736 20.2546L14.927 22.4457L16.3844 23.6611L18.3895 25.3479C18.6648 25.5899 18.7005 26.0078 18.4661 26.2906C18.3545 26.4258 18.1944 26.5119 18.0201 26.5305C17.8457 26.5491 17.6711 26.4987 17.5335 26.39L15.429 24.7134L13.9817 23.4981L10.4044 27.7685C10.1643 28.0695 10.0534 28.4535 10.0961 28.8361C10.1395 29.2182 10.3328 29.5673 10.6336 29.8069L16.3743 34.6607C16.5195 34.783 16.6874 34.8755 16.8684 34.9328C17.0494 34.9901 17.24 35.011 17.4291 34.9945C17.8114 34.9614 18.1651 34.7782 18.4126 34.485L33.3588 16.6365C33.6956 16.2322 33.8587 15.711 33.8124 15.1868C33.7634 14.6637 33.5098 14.181 33.1067 13.844H33.1065Z" fill="#545454" style="mix-blend-mode:color-dodge"/>
</svg>
