<svg width="44" height="44" viewBox="0 0 44 44" fill="none" xmlns="http://www.w3.org/2000/svg">
<path d="M33.5422 18.0774C33.6873 18.2225 33.8025 18.3947 33.881 18.5842C33.9596 18.7737 34 18.9769 34 19.1821C34 19.3872 33.9596 19.5904 33.881 19.7799C33.8025 19.9695 33.6873 20.1417 33.5422 20.2867L20.2867 33.5341C20.1417 33.6792 19.9695 33.7943 19.7799 33.8729C19.5904 33.9515 19.3872 33.9919 19.1821 33.9919C18.9769 33.9919 18.7737 33.9515 18.5842 33.8729C18.3947 33.7943 18.2225 33.6792 18.0774 33.5341L11.4578 26.9144C11.3127 26.7694 11.1975 26.5972 11.119 26.4077C11.0404 26.2181 11 26.015 11 25.8098C11 25.6046 11.0404 25.4015 11.119 25.212C11.1975 25.0224 11.3127 24.8502 11.4578 24.7052L24.7052 11.4578C24.8502 11.3127 25.0224 11.1975 25.212 11.119C25.4015 11.0404 25.6046 11 25.8098 11C26.015 11 26.2181 11.0404 26.4077 11.119C26.5972 11.1975 26.7694 11.3127 26.9144 11.4578L33.5422 18.0856V18.0774ZM20.2867 26.9144L16.9769 23.6014C16.682 23.3192 16.2885 23.1635 15.8803 23.1676C15.4722 23.1717 15.0819 23.3353 14.7927 23.6233C14.5036 23.9114 14.3386 24.3012 14.333 24.7093C14.3274 25.1174 14.4816 25.5115 14.7628 25.8074L18.0774 29.1221C18.2221 29.2689 18.3944 29.3857 18.5844 29.4657C18.7744 29.5457 18.9784 29.5872 19.1845 29.588C19.3907 29.5888 19.5949 29.5488 19.7855 29.4703C19.9761 29.3917 20.1493 29.2762 20.2951 29.1305C20.4409 28.9847 20.5563 28.8115 20.6349 28.6209C20.7134 28.4303 20.7534 28.226 20.7527 28.0199C20.7519 27.8138 20.7103 27.6098 20.6303 27.4198C20.5503 27.2298 20.4336 27.0575 20.2867 26.9128V26.9144ZM22.4959 20.2867L21.3921 19.1829C21.2491 19.0291 21.0765 18.9057 20.8847 18.8201C20.6929 18.7345 20.4858 18.6885 20.2758 18.6847C20.0658 18.6809 19.8572 18.7194 19.6625 18.7981C19.4677 18.8767 19.2908 18.9937 19.1423 19.1423C18.9937 19.2908 18.8767 19.4677 18.7981 19.6625C18.7194 19.8572 18.6809 20.0658 18.6847 20.2758C18.6885 20.4858 18.7345 20.6929 18.8201 20.8847C18.9057 21.0765 19.0291 21.2491 19.1829 21.3921L20.2867 22.4959C20.4297 22.6497 20.6023 22.7731 20.7941 22.8587C20.9859 22.9443 21.193 22.9904 21.403 22.9942C21.613 22.998 21.8216 22.9594 22.0164 22.8808C22.2111 22.8021 22.388 22.6851 22.5366 22.5366C22.6851 22.388 22.8021 22.2111 22.8808 22.0164C22.9594 21.8216 22.998 21.613 22.9942 21.403C22.9904 21.193 22.9443 20.9859 22.8587 20.7941C22.7731 20.6023 22.6497 20.4297 22.4959 20.2867ZM29.1237 18.0774L25.8074 14.7628C25.662 14.6177 25.4895 14.5027 25.2996 14.4243C25.1098 14.3459 24.9064 14.3057 24.701 14.3059C24.4957 14.3061 24.2923 14.3468 24.1027 14.4256C23.913 14.5044 23.7408 14.6198 23.5957 14.7652C23.4506 14.9106 23.3356 15.0831 23.2572 15.2729C23.1789 15.4628 23.1386 15.6662 23.1389 15.8715C23.1391 16.0769 23.1798 16.2802 23.2586 16.4699C23.3374 16.6595 23.4528 16.8318 23.5981 16.9769L26.9128 20.2916C27.0575 20.4384 27.2298 20.5552 27.4198 20.6352C27.6098 20.7152 27.8138 20.7567 28.0199 20.7575C28.226 20.7583 28.4303 20.7183 28.6209 20.6397C28.8115 20.5612 28.9847 20.4457 29.1305 20.3C29.2762 20.1542 29.3917 19.981 29.4703 19.7904C29.5488 19.5998 29.5888 19.3955 29.588 19.1894C29.5872 18.9832 29.5457 18.7793 29.4657 18.5893C29.3857 18.3993 29.2689 18.227 29.1221 18.0823L29.1237 18.0774Z" fill="white" fill-opacity="0.23" style="mix-blend-mode:lighten"/>
<path d="M33.5422 18.0774C33.6873 18.2225 33.8025 18.3947 33.881 18.5842C33.9596 18.7737 34 18.9769 34 19.1821C34 19.3872 33.9596 19.5904 33.881 19.7799C33.8025 19.9695 33.6873 20.1417 33.5422 20.2867L20.2867 33.5341C20.1417 33.6792 19.9695 33.7943 19.7799 33.8729C19.5904 33.9515 19.3872 33.9919 19.1821 33.9919C18.9769 33.9919 18.7737 33.9515 18.5842 33.8729C18.3947 33.7943 18.2225 33.6792 18.0774 33.5341L11.4578 26.9144C11.3127 26.7694 11.1975 26.5972 11.119 26.4077C11.0404 26.2181 11 26.015 11 25.8098C11 25.6046 11.0404 25.4015 11.119 25.212C11.1975 25.0224 11.3127 24.8502 11.4578 24.7052L24.7052 11.4578C24.8502 11.3127 25.0224 11.1975 25.212 11.119C25.4015 11.0404 25.6046 11 25.8098 11C26.015 11 26.2181 11.0404 26.4077 11.119C26.5972 11.1975 26.7694 11.3127 26.9144 11.4578L33.5422 18.0856V18.0774ZM20.2867 26.9144L16.9769 23.6014C16.682 23.3192 16.2885 23.1635 15.8803 23.1676C15.4722 23.1717 15.0819 23.3353 14.7927 23.6233C14.5036 23.9114 14.3386 24.3012 14.333 24.7093C14.3274 25.1174 14.4816 25.5115 14.7628 25.8074L18.0774 29.1221C18.2221 29.2689 18.3944 29.3857 18.5844 29.4657C18.7744 29.5457 18.9784 29.5872 19.1845 29.588C19.3907 29.5888 19.5949 29.5488 19.7855 29.4703C19.9761 29.3917 20.1493 29.2762 20.2951 29.1305C20.4409 28.9847 20.5563 28.8115 20.6349 28.6209C20.7134 28.4303 20.7534 28.226 20.7527 28.0199C20.7519 27.8138 20.7103 27.6098 20.6303 27.4198C20.5503 27.2298 20.4336 27.0575 20.2867 26.9128V26.9144ZM22.4959 20.2867L21.3921 19.1829C21.2491 19.0291 21.0765 18.9057 20.8847 18.8201C20.6929 18.7345 20.4858 18.6885 20.2758 18.6847C20.0658 18.6809 19.8572 18.7194 19.6625 18.7981C19.4677 18.8767 19.2908 18.9937 19.1423 19.1423C18.9937 19.2908 18.8767 19.4677 18.7981 19.6625C18.7194 19.8572 18.6809 20.0658 18.6847 20.2758C18.6885 20.4858 18.7345 20.6929 18.8201 20.8847C18.9057 21.0765 19.0291 21.2491 19.1829 21.3921L20.2867 22.4959C20.4297 22.6497 20.6023 22.7731 20.7941 22.8587C20.9859 22.9443 21.193 22.9904 21.403 22.9942C21.613 22.998 21.8216 22.9594 22.0164 22.8808C22.2111 22.8021 22.388 22.6851 22.5366 22.5366C22.6851 22.388 22.8021 22.2111 22.8808 22.0164C22.9594 21.8216 22.998 21.613 22.9942 21.403C22.9904 21.193 22.9443 20.9859 22.8587 20.7941C22.7731 20.6023 22.6497 20.4297 22.4959 20.2867ZM29.1237 18.0774L25.8074 14.7628C25.662 14.6177 25.4895 14.5027 25.2996 14.4243C25.1098 14.3459 24.9064 14.3057 24.701 14.3059C24.4957 14.3061 24.2923 14.3468 24.1027 14.4256C23.913 14.5044 23.7408 14.6198 23.5957 14.7652C23.4506 14.9106 23.3356 15.0831 23.2572 15.2729C23.1789 15.4628 23.1386 15.6662 23.1389 15.8715C23.1391 16.0769 23.1798 16.2802 23.2586 16.4699C23.3374 16.6595 23.4528 16.8318 23.5981 16.9769L26.9128 20.2916C27.0575 20.4384 27.2298 20.5552 27.4198 20.6352C27.6098 20.7152 27.8138 20.7567 28.0199 20.7575C28.226 20.7583 28.4303 20.7183 28.6209 20.6397C28.8115 20.5612 28.9847 20.4457 29.1305 20.3C29.2762 20.1542 29.3917 19.981 29.4703 19.7904C29.5488 19.5998 29.5888 19.3955 29.588 19.1894C29.5872 18.9832 29.5457 18.7793 29.4657 18.5893C29.3857 18.3993 29.2689 18.227 29.1221 18.0823L29.1237 18.0774Z" fill="#545454" style="mix-blend-mode:color-dodge"/>
</svg>
