<svg width="44" height="44" viewBox="0 0 44 44" fill="none" xmlns="http://www.w3.org/2000/svg">
<path d="M11.1665 12.0838C11.0799 11.7574 11.453 11.4551 11.7544 11.6075L22.2945 16.9332L32.4995 22.0896C32.8365 22.2599 32.6952 22.7787 32.3004 22.821L21.5888 23.9691C21.4209 23.9871 21.2731 24.1069 21.2207 24.2673L17.8774 34.5082C17.7542 34.8856 17.2171 34.9163 17.1204 34.5514L14.1915 23.4993L11.1665 12.0838Z" fill="white" fill-opacity="0.23" style="mix-blend-mode:lighten"/>
<path d="M11.1665 12.0838C11.0799 11.7574 11.453 11.4551 11.7544 11.6075L22.2945 16.9332L32.4995 22.0896C32.8365 22.2599 32.6952 22.7787 32.3004 22.821L21.5888 23.9691C21.4209 23.9871 21.2731 24.1069 21.2207 24.2673L17.8774 34.5082C17.7542 34.8856 17.2171 34.9163 17.1204 34.5514L14.1915 23.4993L11.1665 12.0838Z" fill="#545454" style="mix-blend-mode:color-dodge"/>
</svg>
