<svg width="44" height="44" viewBox="0 0 44 44" fill="none" xmlns="http://www.w3.org/2000/svg">
<path d="M31.2572 34H12.7429C11.2281 34 10 32.7721 10 31.2572V12.7436C10 11.2281 11.2281 10 12.7429 10H31.2572C32.772 10 34 11.2281 34 12.7436V31.2572C34 32.7721 32.7721 34 31.2572 34ZM31.9429 13.4286C31.9429 12.6715 31.3286 12.0572 30.5715 12.0572H13.4286C12.6715 12.0572 12.0572 12.6715 12.0572 13.4286V30.5715C12.0572 31.3286 12.6715 31.9437 13.4286 31.9437H30.5715C31.3286 31.9437 31.9429 31.3292 31.9429 30.5715V13.4286ZM24.7504 18.6538L23.0285 16.9327V27.0517L24.7011 25.3793C25.1029 24.9782 25.7537 24.9775 26.1555 25.3793C26.5572 25.7811 26.5572 26.4325 26.1555 26.8345L22.9682 30.0216C22.9196 30.1245 22.862 30.2259 22.7763 30.3116C22.5623 30.525 22.2798 30.616 22 30.603C21.7209 30.6169 21.4377 30.525 21.2238 30.311C21.1381 30.2252 21.0791 30.1257 21.0325 30.0224L17.8446 26.8345C17.4428 26.4325 17.4428 25.7811 17.8446 25.3793C18.2464 24.9782 18.8971 24.9775 19.299 25.3793L20.9715 27.0517V16.9327L19.2503 18.6538C18.8485 19.0563 18.197 19.0556 17.7952 18.6538C17.3934 18.2519 17.3934 17.6012 17.7952 17.1993L21.2725 13.7228C21.6743 13.3209 22.325 13.3203 22.7269 13.7228L26.2042 17.1993C26.606 17.6012 26.606 18.2526 26.2042 18.6538C25.803 19.0556 25.1516 19.0556 24.7504 18.6538Z" fill="white"/>
</svg>
