<svg width="44" height="44" viewBox="0 0 44 44" fill="none" xmlns="http://www.w3.org/2000/svg">
<path d="M29.7194 30.0288H33V31.7554H29.7194V30.0288ZM27.1655 31.7554C27.7178 31.7554 28.1655 31.3077 28.1655 30.7554V12.6479C28.1655 11.7262 27.0244 11.2953 26.4151 11.9869L10.4633 30.0944C9.89431 30.7402 10.3529 31.7554 11.2136 31.7554H27.1655ZM24.7122 27.3022C24.7122 27.8544 24.2645 28.3022 23.7122 28.3022H18.9096C18.0335 28.3022 17.5809 27.2556 18.1809 26.6172L22.9836 21.508C23.6041 20.848 24.7122 21.2871 24.7122 22.1929V27.3022ZM29.7194 16.7338H33V18.4604H29.7194V16.7338ZM29.7194 23.4676H33V25.1942H29.7194V23.4676ZM29.7194 10H33V11.7266H29.7194V10Z" fill="white" fill-opacity="0.23" style="mix-blend-mode:lighten"/>
<path d="M29.7194 30.0288H33V31.7554H29.7194V30.0288ZM27.1655 31.7554C27.7178 31.7554 28.1655 31.3077 28.1655 30.7554V12.6479C28.1655 11.7262 27.0244 11.2953 26.4151 11.9869L10.4633 30.0944C9.89431 30.7402 10.3529 31.7554 11.2136 31.7554H27.1655ZM24.7122 27.3022C24.7122 27.8544 24.2645 28.3022 23.7122 28.3022H18.9096C18.0335 28.3022 17.5809 27.2556 18.1809 26.6172L22.9836 21.508C23.6041 20.848 24.7122 21.2871 24.7122 22.1929V27.3022ZM29.7194 16.7338H33V18.4604H29.7194V16.7338ZM29.7194 23.4676H33V25.1942H29.7194V23.4676ZM29.7194 10H33V11.7266H29.7194V10Z" fill="#545454" style="mix-blend-mode:color-dodge"/>
</svg>
