<svg width="44" height="44" viewBox="0 0 44 44" fill="none" xmlns="http://www.w3.org/2000/svg">
<path d="M10.9034 31.3238L14.5137 34.9341C15.0174 35.4378 15.815 35.4378 16.2768 34.9341L21.5244 29.6865C22.0281 29.1828 22.0281 28.3851 21.5244 27.9233L20.097 26.496L20.8107 25.7824L21.2725 26.2442C21.9442 26.9158 22.8258 27.2097 23.6653 27.2097C24.7988 28.1332 26.2681 28.2592 27.1077 27.4196C27.9473 26.58 27.8214 25.1107 26.8978 23.9772C26.8978 23.0956 26.604 22.256 25.9323 21.5843L25.4705 21.1226L26.1842 20.4089L27.6115 21.8362C28.1153 22.34 28.9129 22.34 29.3747 21.8362L34.6222 16.5887C35.126 16.0849 35.126 15.2873 34.6222 14.8255L31.0119 11.2152C30.5082 10.7115 29.7105 10.7115 29.2487 11.2152L24.0012 16.4628C23.4975 16.9665 23.4975 17.7642 24.0012 18.226L25.2186 19.4434L24.505 20.157L22.9097 18.5618C22.4899 19.5273 21.8182 20.4929 20.9786 21.3325C20.139 22.1721 19.1735 22.8438 18.2079 23.2636L19.8032 24.8588L19.0895 25.5725L17.8721 24.3551C17.3683 23.8513 16.5707 23.8513 16.1089 24.3551L10.8614 29.6026C10.3996 30.0644 10.3996 30.862 10.9034 31.3238Z" fill="white"/>
<path d="M12.1208 22.2561C12.2048 22.3401 12.3307 22.424 12.4147 22.466C12.4147 22.466 12.4567 22.466 12.4567 22.508C12.5406 22.55 12.5826 22.5919 12.6665 22.6339H12.7085C14.7656 23.7674 17.9561 22.9698 20.307 20.6189C22.6998 18.226 23.4555 15.0775 22.322 13.0204C22.28 12.9365 22.2381 12.8945 22.1961 12.8106C22.1961 12.8106 22.1961 12.7686 22.1541 12.7686C22.0701 12.6426 21.9862 12.5587 21.9442 12.4747C21.0626 11.887 19.0895 12.6426 16.9905 14.3218L18.04 15.1614C19.2994 14.1539 20.307 13.6082 20.6008 13.86C20.9786 14.2379 19.7192 16.127 17.7881 18.0581C15.8571 19.9892 13.9679 21.2486 13.5901 20.8708C13.3382 20.6189 13.8 19.7373 14.6816 18.6038L13.842 17.5543C12.2468 19.5694 11.5331 21.4165 12.1208 22.2561Z" fill="white"/>
<path d="M17.1584 16.6307C17.4943 16.8826 17.4943 17.3444 17.2004 17.6382L17.0745 17.7642C16.7806 18.058 16.3188 18.0161 16.0669 17.7222L14.9335 16.3368C14.6816 16.001 14.6816 15.4972 14.9755 15.2034L14.5977 15.5812C14.8915 15.2873 15.3953 15.2454 15.7311 15.5392L17.1584 16.6307V16.6307Z" fill="white"/>
<path d="M14.4414 16.0648C14.9759 16.0648 15.4208 15.6198 15.4507 15.1148C15.4507 14.5804 15.035 14.1648 14.4414 14.1648C13.907 14.1648 13.4323 14.5804 13.4323 15.1148C13.4616 15.679 13.907 16.0648 14.4414 16.0648Z" fill="white"/>
<path d="M11.9479 16.0648C11.9479 15.174 12.3043 14.3432 12.9869 13.7198C13.6401 13.0666 14.5007 12.74 15.4511 12.74V11.3744C12.7199 11.3744 10.5529 13.4818 10.5231 16.0648H11.9479Z" fill="white"/>
<path d="M9.42481 16.0942C9.42481 12.9478 12.1263 10.3652 15.4507 10.3652V9C11.3542 9 8 12.1762 8 16.0946H9.42481" fill="white"/>
</svg>
