<svg width="44" height="44" viewBox="0 0 44 44" fill="none" xmlns="http://www.w3.org/2000/svg">
<path d="M34.9999 33.0518C34.9999 33.6583 35.0169 34.2252 34.5918 34.6503C34.297 34.945 33.9569 35.1037 33.4638 35.1037C32.9707 35.1037 32.6306 34.945 32.3358 34.6503C31.9107 34.2252 31.9277 33.6583 31.9277 33.0518C31.9277 32.4453 31.9107 31.8785 32.3358 31.4534C32.6306 31.1586 32.9707 30.9999 33.4638 30.9999C33.9569 30.9999 34.297 31.1586 34.5918 31.4534C35.0169 31.8785 34.9999 32.4453 34.9999 33.0518ZM34.008 33.0518C34.008 32.315 33.9513 32.1789 33.8606 32.0599C33.7869 31.9635 33.6452 31.8842 33.4638 31.8842C33.2824 31.8842 33.1407 31.9635 33.067 32.0599C32.9763 32.1789 32.9196 32.315 32.9196 33.0518C32.9196 33.7887 32.9763 33.9191 33.067 34.0381C33.1407 34.1345 33.2824 34.2195 33.4638 34.2195C33.6452 34.2195 33.7869 34.1345 33.8606 34.0381C33.9513 33.9191 34.008 33.7887 34.008 33.0518Z" fill="white"/>
<path d="M31.5907 31.9182H30.5988V35.0697H29.6068V31.9182H28.6149V31.0339H31.5907V31.9182Z" fill="white"/>
<path d="M28.1039 33.6527C28.1039 34.5369 27.4067 35.1037 26.5678 35.1037C25.7289 35.1037 25.0431 34.5369 25.0431 33.6527V31.0339H26.035V33.63C26.035 34.0041 26.2391 34.2195 26.5678 34.2195C26.8966 34.2195 27.112 34.0041 27.112 33.63V31.0339H28.1039V33.6527Z" fill="white"/>
<path d="M24.7014 35.0697H23.6641L23.477 34.4689H22.2357L22.0373 35.0697H21L22.4681 31.0339H23.2333L24.7014 35.0697ZM23.2163 33.6413L22.8762 32.5644L22.5134 33.6413H23.2163Z" fill="white"/>
<path fill-rule="evenodd" clip-rule="evenodd" d="M31.2105 28.9865C31.2105 26.4109 29.6227 24.7082 27.2164 23.7861C27.0168 23.7096 26.799 23.6933 26.5902 23.7394C26.3814 23.7854 26.1907 23.8917 26.0417 24.0451C25.9406 24.1486 25.8522 24.2345 25.7764 24.3027C24.4941 25.4559 22.8298 26.0927 21.1053 26.0901C19.4339 26.0924 17.8173 25.4939 16.5503 24.4038C16.4442 24.3128 16.3192 24.1928 16.1739 24.0438C16.0241 23.89 15.8325 23.7835 15.6228 23.7375C15.4131 23.6914 15.1945 23.7079 14.9941 23.7848C12.5878 24.7069 11 26.4084 11 28.9853V31.6682C11 32.2866 11.2457 32.8797 11.683 33.317C12.1203 33.7543 12.7134 34 13.3318 34L19.8002 34V32.4C19.8002 30.6327 21.2329 29.2 23.0002 29.2H31.2105V28.9865ZM25.2273 11.7074C24.1341 10.6142 22.6513 10 21.1053 10C19.5592 10 18.0764 10.6142 16.9832 11.7074C15.89 12.8007 15.2758 14.2834 15.2758 15.8295V18.5137C15.2758 20.0598 15.89 21.5425 16.9832 22.6357C18.0764 23.729 19.5592 24.3432 21.1053 24.3432C22.6513 24.3432 24.1341 23.729 25.2273 22.6357C26.3206 21.5425 26.9347 20.0598 26.9347 18.5137V15.8295C26.9347 14.2834 26.3206 12.8007 25.2273 11.7074Z" fill="white"/>
</svg>
