<svg width="44" height="44" viewBox="0 0 44 44" fill="none" xmlns="http://www.w3.org/2000/svg">
<path d="M16.4814 14.6667C17.5777 14.6667 18.8067 15.6353 19.638 16.4468C20.0983 16.8948 20.5826 17.5538 21.0115 18.1941C21.226 17.5374 21.7946 17.0332 22.438 16.8056C22.6549 16.7306 22.879 16.6884 23.1103 16.6884C23.6959 16.6884 24.2405 16.9417 24.6043 17.3638C24.8332 16.9839 25.1899 16.6977 25.6188 16.5477C25.8356 16.4726 26.0597 16.4303 26.2911 16.4303C27.0549 16.4303 27.7513 16.8666 28.0646 17.5374C28.2429 17.3966 28.4453 17.2841 28.6212 17.2208C28.814 17.1528 29.014 17.1176 29.2164 17.1176C29.9489 17.1176 30.5971 17.5397 30.8333 18.1753C30.9321 18.4357 33.2044 24.5477 32.9851 26.438C32.7514 28.4011 32.2478 30.4134 28.9321 31.5861C27.9947 31.9192 27.1007 32.0833 26.2091 32.0833C24.3368 32.0833 22.7248 31.3492 21.0187 30.5659L20.5802 30.3689C17.9127 29.1563 15.9874 28.1549 15.9681 28.1478C14.8428 27.6365 14.3488 26.309 14.8813 25.188C15.2524 24.4093 16.0693 23.9004 16.9464 23.9004C17.2838 23.9004 17.6091 23.9731 17.9151 24.1115L20.026 25.127C19.5344 23.8253 18.6187 21.4964 17.8597 20.2064C17.2187 19.1135 16.6019 18.7078 16.0524 18.3536C15.691 18.1144 15.3416 17.8916 15.0765 17.5116C14.7343 17.012 14.6452 16.414 14.8307 15.8698C15.0066 15.3539 15.4139 14.9458 15.9392 14.7582C16.1135 14.6976 16.2968 14.6667 16.4814 14.6667ZM16.5 11C17.9461 11 19.306 11.5618 20.3245 12.5474C20.6883 12.8995 20.6978 13.4798 20.3457 13.8436C19.9937 14.2074 19.4133 14.2169 19.0495 13.8648C18.3697 13.2068 17.4654 12.8333 16.5 12.8333C14.4749 12.8333 12.8333 14.475 12.8333 16.5C12.8333 17.5477 13.2738 18.5223 14.0341 19.2136C14.4086 19.5543 14.4361 20.134 14.0955 20.5086C13.7549 20.8831 13.1752 20.9106 12.8006 20.57C11.6622 19.5347 11 18.0696 11 16.5C11 13.4625 13.4624 11 16.5 11Z" fill="white"/>
</svg>
