<svg width="44" height="44" viewBox="0 0 44 44" fill="none" xmlns="http://www.w3.org/2000/svg">
<path d="M37.9997 22.3969C37.9997 23.7831 38.0386 25.0787 37.0669 26.0504C36.3932 26.7241 35.6158 27.0869 34.4887 27.0869C33.3615 27.0869 32.5842 26.7241 31.9105 26.0504C30.9388 25.0787 30.9776 23.7831 30.9776 22.3969C30.9776 21.0106 30.9388 19.715 31.9105 18.7433C32.5842 18.0696 33.3615 17.7068 34.4887 17.7068C35.6158 17.7068 36.3932 18.0696 37.0669 18.7433C38.0386 19.715 37.9997 21.0106 37.9997 22.3969ZM35.7324 22.3969C35.7324 20.7126 35.6029 20.4017 35.3956 20.1296C35.2272 19.9093 34.9033 19.728 34.4887 19.728C34.0741 19.728 33.7502 19.9093 33.5818 20.1296C33.3745 20.4017 33.2449 20.7126 33.2449 22.3969C33.2449 24.0811 33.3745 24.3791 33.5818 24.6512C33.7502 24.8714 34.0741 25.0658 34.4887 25.0658C34.9033 25.0658 35.2272 24.8714 35.3956 24.6512C35.6029 24.3791 35.7324 24.0811 35.7324 22.3969Z" fill="white"/>
<path d="M30.2076 19.8057H27.9403V27.0091H25.673V19.8057H23.4058V17.7845H30.2076V19.8057Z" fill="white"/>
<path d="M22.2377 23.7702C22.2377 25.7913 20.6442 27.0869 18.7267 27.0869C16.8092 27.0869 15.2416 25.7913 15.2416 23.7702V17.7845H17.5089V23.7183C17.5089 24.5734 17.9753 25.0657 18.7267 25.0657C19.4781 25.0657 19.9705 24.5734 19.9705 23.7183V17.7845H22.2377V23.7702Z" fill="white"/>
<path d="M14.4601 27.0091H12.0891L11.6616 25.6358H8.82425L8.3708 27.0091H5.99988L9.35544 17.7845H11.1045L14.4601 27.0091ZM11.0656 23.7442L10.2883 21.2826L9.45909 23.7442H11.0656Z" fill="white"/>
</svg>
