<svg width="44" height="44" viewBox="0 0 44 44" fill="none" xmlns="http://www.w3.org/2000/svg">
<path d="M21.9958 10.9958C15.3684 10.9958 9.99585 16.3683 9.99585 22.9958C9.99585 29.6232 15.3684 34.9958 21.9958 34.9958C28.6231 34.9958 33.9958 29.6232 33.9958 22.9958C33.9958 16.3683 28.6231 10.9958 21.9958 10.9958ZM25.2429 29.7306C24.5372 29.9745 23.9826 30.1626 23.5605 30.296C23.1442 30.4292 22.6555 30.4958 22.101 30.4958C21.2506 30.4958 20.5869 30.3069 20.1168 29.9408C19.6402 29.5637 19.405 29.0981 19.405 28.521C19.405 28.2992 19.423 28.0772 19.4589 27.8444C19.4956 27.6116 19.5555 27.345 19.6282 27.0564L20.5083 24.2717C20.5869 24.0059 20.5423 23.762 20.5971 23.5175C20.6514 23.2847 20.6752 23.0628 20.6752 22.8745C20.6752 22.5078 20.7088 22.2639 20.5456 22.1305C20.3764 21.9864 20.0695 22.0278 19.6048 22.0278C19.375 22.0278 19.14 22.0608 18.9051 22.1163C18.6639 22.183 18.459 22.1305 18.2898 22.1973L18.5256 21.3318C19.0981 21.1209 19.6527 20.9436 20.178 20.7993C20.7028 20.6442 21.2028 20.5776 21.6675 20.5776C22.5177 20.5776 23.1697 20.7554 23.6277 21.1215C24.0859 21.4877 24.5926 21.9643 24.5926 22.5414C24.5926 22.6636 24.5739 22.8745 24.5439 23.1851C24.514 23.4845 24.4534 23.762 24.3688 24.0168L23.211 26.79C23.1442 27.0119 23.0784 27.2673 23.0238 27.5559C22.9632 27.8334 22.9333 28.0553 22.9333 28.1994C22.9333 28.5656 23.0298 28.8204 23.211 28.9538C23.398 29.0864 23.7177 29.153 24.1696 29.153C24.3808 29.153 24.6225 29.12 24.8934 29.054C25.1644 28.9874 25.3575 28.9317 25.4781 28.8761L25.2429 29.7306ZM25.0865 18.4805C24.6824 18.8246 24.1884 18.9908 23.6153 18.9908C23.0425 18.9908 22.5479 18.8246 22.1315 18.4805C21.7214 18.1473 21.5165 17.7373 21.5165 17.2489C21.5165 16.7714 21.7214 16.3607 22.1315 16.0172C22.5479 15.6737 23.0426 15.4958 23.6153 15.4958C24.1876 15.4958 24.6824 15.673 25.0865 16.0172C25.4965 16.3613 25.7019 16.7722 25.7019 17.2489C25.7019 17.7372 25.4965 18.1473 25.0865 18.4805Z" fill="white" fill-opacity="0.23" style="mix-blend-mode:lighten"/>
<path d="M21.9958 10.9958C15.3684 10.9958 9.99585 16.3683 9.99585 22.9958C9.99585 29.6232 15.3684 34.9958 21.9958 34.9958C28.6231 34.9958 33.9958 29.6232 33.9958 22.9958C33.9958 16.3683 28.6231 10.9958 21.9958 10.9958ZM25.2429 29.7306C24.5372 29.9745 23.9826 30.1626 23.5605 30.296C23.1442 30.4292 22.6555 30.4958 22.101 30.4958C21.2506 30.4958 20.5869 30.3069 20.1168 29.9408C19.6402 29.5637 19.405 29.0981 19.405 28.521C19.405 28.2992 19.423 28.0772 19.4589 27.8444C19.4956 27.6116 19.5555 27.345 19.6282 27.0564L20.5083 24.2717C20.5869 24.0059 20.5423 23.762 20.5971 23.5175C20.6514 23.2847 20.6752 23.0628 20.6752 22.8745C20.6752 22.5078 20.7088 22.2639 20.5456 22.1305C20.3764 21.9864 20.0695 22.0278 19.6048 22.0278C19.375 22.0278 19.14 22.0608 18.9051 22.1163C18.6639 22.183 18.459 22.1305 18.2898 22.1973L18.5256 21.3318C19.0981 21.1209 19.6527 20.9436 20.178 20.7993C20.7028 20.6442 21.2028 20.5776 21.6675 20.5776C22.5177 20.5776 23.1697 20.7554 23.6277 21.1215C24.0859 21.4877 24.5926 21.9643 24.5926 22.5414C24.5926 22.6636 24.5739 22.8745 24.5439 23.1851C24.514 23.4845 24.4534 23.762 24.3688 24.0168L23.211 26.79C23.1442 27.0119 23.0784 27.2673 23.0238 27.5559C22.9632 27.8334 22.9333 28.0553 22.9333 28.1994C22.9333 28.5656 23.0298 28.8204 23.211 28.9538C23.398 29.0864 23.7177 29.153 24.1696 29.153C24.3808 29.153 24.6225 29.12 24.8934 29.054C25.1644 28.9874 25.3575 28.9317 25.4781 28.8761L25.2429 29.7306ZM25.0865 18.4805C24.6824 18.8246 24.1884 18.9908 23.6153 18.9908C23.0425 18.9908 22.5479 18.8246 22.1315 18.4805C21.7214 18.1473 21.5165 17.7373 21.5165 17.2489C21.5165 16.7714 21.7214 16.3607 22.1315 16.0172C22.5479 15.6737 23.0426 15.4958 23.6153 15.4958C24.1876 15.4958 24.6824 15.673 25.0865 16.0172C25.4965 16.3613 25.7019 16.7722 25.7019 17.2489C25.7019 17.7372 25.4965 18.1473 25.0865 18.4805Z" fill="#545454" style="mix-blend-mode:color-dodge"/>
</svg>
