<svg width="44" height="44" viewBox="0 0 44 44" fill="none" xmlns="http://www.w3.org/2000/svg">
<path d="M31.4857 19.8143L20.0857 12.6571V11.2857H20.4179C20.7955 11.2857 21.1277 10.9857 21.1277 10.6429C21.1277 10.3 20.8438 10 20.4179 10H14.2652C13.8875 10 13.5554 10.3 13.5554 10.6429C13.5554 10.9857 13.8875 11.2857 14.2652 11.2857H14.5009V12.4857H12.2777C11.5679 12.4857 11 13 11 13.6429V32.8429C11 33.4857 11.5679 34 12.2777 34H30.725C31.4348 34 32.0027 33.4857 32.0027 32.8429V20.7571C32.0054 20.4143 31.8152 20.0286 31.4857 19.8143ZM24.6554 28.8839C23.908 29.5696 22.7643 29.9714 21.6205 29.9714C19.3813 29.9714 17.5411 28.4821 17.5411 26.6688C17.4902 26.4679 17.4902 24.4536 20.975 19.9857L21.5723 19.1795L22.2179 19.9455C22.317 20.1062 25.4027 23.8911 25.6518 26.6286C25.7509 27.4348 25.4027 28.2411 24.6554 28.8839Z" fill="white"/>
</svg>
