<svg width="44" height="44" viewBox="0 0 44 44" fill="none" xmlns="http://www.w3.org/2000/svg">
<path d="M17.548 14V10H25.548V14H31.548V20H11.548V14H25.548H17.548ZM27.548 34V28H25.548V34H22.548V28H20.548V34H17.548V28H15.548V34H11L11.548 31.93V22H31.548V32.048L32.128 34H27.548Z" fill="white" fill-opacity="0.23" style="mix-blend-mode:lighten"/>
<path d="M17.548 14V10H25.548V14H31.548V20H11.548V14H25.548H17.548ZM27.548 34V28H25.548V34H22.548V28H20.548V34H17.548V28H15.548V34H11L11.548 31.93V22H31.548V32.048L32.128 34H27.548Z" fill="#545454" style="mix-blend-mode:color-dodge"/>
</svg>
