<svg width="44" height="44" viewBox="0 0 44 44" fill="none" xmlns="http://www.w3.org/2000/svg">
<path fill-rule="evenodd" clip-rule="evenodd" d="M23.7366 20.4643C23.2158 20.0939 22.6555 19.7109 22.198 19.4243V30.4146H20.3792V11H22.1996V12.2521C22.8454 12.7634 24.2495 13.7559 25.4035 13.7559C26.9595 13.7559 29.2453 13.7749 30.2394 14.0551C31.2335 14.3352 32.7516 14.2988 33.0492 14.2228C33.35 14.1469 30.9138 17.8018 30.9138 17.8018L33.1616 21.5312C33.1616 21.5312 31.9443 21.1751 30.3328 21.0453C29.8614 21.0069 29.1901 21.0038 28.4502 21.0003C26.6589 20.992 24.4659 20.9819 23.7366 20.4643ZM24.7496 27.5395V26.1719C28.9065 26.6341 31.9062 27.9479 31.9078 29.4944C31.9078 31.4319 27.2286 33.0006 21.4539 33.0006C15.6792 33.0006 11 31.4319 11 29.4944C11 27.9685 13.9253 26.6657 18.003 26.1877V27.5601C15.4925 27.9178 13.7686 28.6492 13.7686 29.4944C13.7686 30.6911 17.21 31.6615 21.4539 31.6615C25.6978 31.6615 29.1408 30.6911 29.1408 29.4944C29.1408 28.6317 27.3473 27.8878 24.7496 27.5395Z" fill="white"/>
</svg>
